<svg width="15" height="16" viewBox="0 0 15 16" fill="none" xmlns="http://www.w3.org/2000/svg">
<g id="icon/dollar-sign" clip-path="url(#clip0_352_1147)">
<path id="Vector" d="M7.5 1.49438V13.9944" stroke="black" stroke-width="1.25" stroke-linecap="round" stroke-linejoin="round"/>
<path id="Vector_2" d="M10.625 3.36938H5.9375C5.35734 3.36938 4.80094 3.59985 4.3907 4.01009C3.98047 4.42032 3.75 4.97672 3.75 5.55688C3.75 6.13705 3.98047 6.69344 4.3907 7.10368C4.80094 7.51392 5.35734 7.74438 5.9375 7.74438H9.0625C9.64266 7.74438 10.1991 7.97485 10.6093 8.38509C11.0195 8.79532 11.25 9.35172 11.25 9.93188C11.25 10.512 11.0195 11.0684 10.6093 11.4787C10.1991 11.8889 9.64266 12.1194 9.0625 12.1194H3.75" stroke="black" stroke-width="1.25" stroke-linecap="round" stroke-linejoin="round"/>
</g>
<defs>
<clipPath id="clip0_352_1147">
<rect width="15" height="15" fill="white" transform="translate(0 0.244385)"/>
</clipPath>
</defs>
</svg>
