<svg width="15" height="16" viewBox="0 0 15 16" fill="none" xmlns="http://www.w3.org/2000/svg">
<g id="icon/sprout">
<path id="Vector" d="M4.375 12.7444H10.625" stroke="black" stroke-width="1.25" stroke-linecap="round" stroke-linejoin="round"/>
<path id="Vector_2" d="M6.25 12.7444C9.6875 11.1819 6.75 8.74438 8.125 6.49438" stroke="black" stroke-width="1.25" stroke-linecap="round" stroke-linejoin="round"/>
<path id="Vector_3" d="M5.9375 6.11926C6.625 6.61926 7.0625 7.49426 7.375 8.43176C6.125 8.68176 5.1875 8.68176 4.375 8.24426C3.625 7.86926 2.9375 7.05676 2.5 5.61926C4.25 5.30676 5.25 5.61926 5.9375 6.11926Z" stroke="black" stroke-width="1.25" stroke-linecap="round" stroke-linejoin="round"/>
<path id="Vector_4" d="M8.81261 3.99438C8.3361 4.73911 8.09641 5.61073 8.12511 6.49438C9.31261 6.43188 10.1876 6.11939 10.8126 5.61939C11.4376 4.99439 11.8126 4.18188 11.8751 2.74438C10.1876 2.80688 9.37511 3.36938 8.81261 3.99438Z" stroke="black" stroke-width="1.25" stroke-linecap="round" stroke-linejoin="round"/>
</g>
</svg>
