<svg width="15" height="16" viewBox="0 0 15 16" fill="none" xmlns="http://www.w3.org/2000/svg">
<g id="icon/target" clip-path="url(#clip0_352_1152)">
<path id="Vector" d="M7.5 13.9944C10.9518 13.9944 13.75 11.1962 13.75 7.74439C13.75 4.29261 10.9518 1.49438 7.5 1.49438C4.04822 1.49438 1.25 4.29261 1.25 7.74439C1.25 11.1962 4.04822 13.9944 7.5 13.9944Z" stroke="black" stroke-width="1.25" stroke-linecap="round" stroke-linejoin="round"/>
<path id="Vector_2" d="M7.5 11.4944C9.57107 11.4944 11.25 9.81545 11.25 7.74438C11.25 5.67332 9.57107 3.99438 7.5 3.99438C5.42893 3.99438 3.75 5.67332 3.75 7.74438C3.75 9.81545 5.42893 11.4944 7.5 11.4944Z" stroke="black" stroke-width="1.25" stroke-linecap="round" stroke-linejoin="round"/>
<path id="Vector_3" d="M7.5 8.99438C8.19036 8.99438 8.75 8.43474 8.75 7.74438C8.75 7.05403 8.19036 6.49438 7.5 6.49438C6.80964 6.49438 6.25 7.05403 6.25 7.74438C6.25 8.43474 6.80964 8.99438 7.5 8.99438Z" stroke="black" stroke-width="1.25" stroke-linecap="round" stroke-linejoin="round"/>
</g>
<defs>
<clipPath id="clip0_352_1152">
<rect width="15" height="15" fill="white" transform="translate(0 0.244385)"/>
</clipPath>
</defs>
</svg>
